<svg id="Layer_1" data-name="Layer 1" xmlns="http://www.w3.org/2000/svg" viewBox="0 0 355 520">
    <defs>
        <style>
            .cls-1{fill:none;}.cls-2{fill:#010101;}.cls-3{fill:#fefefe;}.cls-4{fill:#fe733e;}.cls-5{fill:#b5d2f3;}.cls-6{fill:#fe684b;}.cls-7{fill:#fe6446;}.cls-8{fill:#e2f5fc;}.cls-9{fill:#cdecf6;}.cls-10{fill:#fe6b3c;}.cls-11{fill:#fe6142;}.cls-12{fill:#fe6143;}.cls-13{fill:#070909;}.cls-14{fill:#fdfcfb;}.cls-15{fill:#fea777;}.cls-16{fill:#fdfefe;}.cls-17{fill:#fbfdfe;}.cls-18{fill:#090b0b;}.cls-19{fill:#090c0c;}
        </style>
    </defs>
    <title>argo-stacked-color</title>
    <g id="g948">
        <path id="path4" class="cls-1"
              d="M229.30953,426.80672a25.5989,25.5989,0,1,0-25.33248,25.738A25.45228,25.45228,0,0,0,229.30953,426.80672Z"/>
        <path id="path6" class="cls-1"
              d="M53.01174,402.03581C39.16,401.9734,27.21131,413.48533,26.83693,427.21229c-.37437,13.82055,11.01277,25.14529,25.55085,25.33247,14.4445.18719,25.23888-10.13923,25.39487-24.36534C77.96984,413.76611,66.92588,402.0982,53.01174,402.03581Z"/>
        <path id="path8" class="cls-1"
              d="M302.49916,401.911A25.32232,25.32232,0,1,0,328.362,427.21229,25.4434,25.4434,0,0,0,302.49916,401.911Z"/>
        <path id="path16"
              d="M215.20819,383.442c-19.81049-4.898-39.96417,3.21335-50.38417,20.24725a45.18858,45.18858,0,0,0,4.80443,53.41034c13.88294,15.44283,34.87893,19.6857,53.72231,10.888,1.80946-.84233,3.33814-2.71419,5.70915-1.90305.49916,9.70246-.77994,15.03725-4.92923,20.46564-11.3247,14.81887-32.2271,13.29018-42.86549-3.151q-6.27073-9.68687-14.28852-5.2412c-5.64676,3.151-6.7075,8.70413-2.80778,15.474a45.62775,45.62775,0,0,0,24.24054,20.34085c1.84066.68635,1.59107.68635,4.39888,1.74706,3.21336,1.24791,13.103,1.55988,17.689.71755a42.50215,42.50215,0,0,0,5.834-1.65347c19.09294-5.70917,32.47673-22.52469,32.94469-42.46.34315-15.56761.40557-31.13523-.03075-46.70284A45.23713,45.23713,0,0,0,215.20864,383.442ZM178.083,427.27469A25.5988,25.5988,0,1,1,203.94586,452.576,25.54573,25.54573,0,0,1,178.083,427.27469Z"/>
        <path id="path18"
              d="M346.207,413.82851c-6.86351-21.21439-27.98426-34.69176-49.60422-31.5096-22.49347,3.30695-39.05942,21.90073-39.465,44.26943-.37435,21.93193,15.41162,40.96249,37.53075,45.20536,21.43276,4.11809,43.3647-8.517,50.97691-29.26337.74875-2.09024,2.55822-6.48911,2.77662-9.70246a49.481,49.481,0,0,0-.56153-13.1966A59.83042,59.83042,0,0,0,346.207,413.82851ZM302.49916,452.576a25.32232,25.32232,0,1,1,25.83164-25.33247A25.526,25.526,0,0,1,302.49916,452.576Z"/>
        <path id="path24"
              d="M96.47,417.57222c-5.95875-26.33079-31.728-41.18086-57.24763-33.19427C13.578,392.42694.28776,420.25522,10.3958,444.80776c9.76485,23.77259,39.3402,34.66056,62.64483,23.02385,2.7454-1.3727,4.80444-3.36935,7.45623.74874,2.33982,3.61892,6.42672,4.80443,10.85678,3.02617,4.30528-1.74707,6.17713-5.02282,6.14592-9.54647-.03109-6.45791,0-12.91582,0-21.0272C97.094,434.29416,98.3419,425.8396,96.47,417.57222ZM52.3878,452.576c-14.5381-.18718-25.95643-11.51192-25.55087-25.33247.37438-13.727,12.35426-25.23888,26.17481-25.17649,13.91414.06241,24.9581,11.73031,24.77091,26.14361C77.62669,442.40553,66.83229,452.76314,52.3878,452.576Z"/>
        <path id="path26" class="cls-2"
              d="M161.17393,391.21023c-.49916-6.5203-5.99-9.85845-14.50689-8.92252a45.50136,45.50136,0,0,0-40.24494,37.12518c-1.49748,7.79941-.34318,15.7548-.68635,22.3063,0,7.05067-.03109,12.791,0,18.53139.06241,7.893,3.55653,12.26067,9.79607,12.32307,6.23951.09359,10.04564-4.33647,10.13923-12.10468.09359-10.98157-.09359-21.99433.06242-32.97589.1872-13.727,9.70246-24.64613,23.27342-25.20769C157.05586,401.94222,161.57952,396.60742,161.17393,391.21023Z"/>
    </g>
    <g id="g939">
        <path id="path10" class="cls-3"
              d="M155.24537,289.52673c.0302,0,.06063.09092.06063.27274.0302,1.27274.06058,2.51517.0909,3.78791.18184-.9697.36365-1.93941.57576-2.93942C155.82115,288.79947,154.3666,289.73887,155.24537,289.52673Z"/>
        <path id="path12" class="cls-3"
              d="M234.76112,185.88959c-.0302.0302-.0909.0302-.12121.06063.0302.0302.09091.06063.12121.09091C234.73092,186.01093,234.76112,185.95022,234.76112,185.88959Z"/>
        <path id="path14" class="cls-3"
              d="M184.66982,58.67649v.02988h.09091C184.73053,58.70637,184.70015,58.67649,184.66982,58.67649Z"/>
        <path id="path20" class="cls-4"
              d="M227.24591,314.16328c.39394-4.394.18183-8.84854.72728-13.21222,1.21214-9.60613.06063-19.42438,2.57579-28.9093,1.24244-4.90913-2.72729-10.66675,2.36364-14.96981h0l-1.27274-4.18186c-1.42425-2.36364-.697-4.6667.15151-6.96975h0c-.0909-8.4243,0-16.84861,1.51515-25.182.45455-11.57586.9394-23.15171,1.39395-34.75783-.0302-.0302-.0909-.06063-.1212-.09091-24.75776,11.36372-48.09127-4.54548-52.061-23.63655-2.60609-12.54555-1.21214-24.39411,8.57582-33.97,1.63638-1.60608,3.03033-3.45458,4.54548-5.21217,4-23.96987,1.21214-45.97006-19.27287-63.1217,3.06063-1.75759,5.81822-.75756,8.3031-1.21211v-.02987c-25.1214-6.30308-55.60648,10.87886-65.69746,37.12152a57.77211,57.77211,0,0,0-4.15154,24.45472c24.9093-11.54555,47.24278,2.24244,53.39435,23.24261,6.394,21.84865-10.63645,44.97-33.273,45.30337a63.54929,63.54929,0,0,1-19.12135-2.8485q.68183,18.091,1.394,36.18208h0c.87879,7.90916,1.81819,15.788,1.42425,23.75776q.09087,2.81818.18183,5.6364h0c-.06063,1.24244-.1212,2.48487-.18183,3.75761,1.84849,7.57582,2.24244,15.36375,2.81819,23.12139a4.28714,4.28714,0,0,1-.1212-.60607c.0302.21212.0909.39394.1212.60607.60606,13.18192.9697,26.39413,1.9091,39.57605.394,5.45458-1.57578,8.18187-6.6061,9.57583-5.93945,1.66669-11.788,3.66669-17.66681,5.5455a144.59177,144.59177,0,0,0,23.39412,1.03032c8.394-.18182,12.21221-3.90912,13.0304-12.24252.51515-5.30307.9697-10.60614,1.45455-15.90922.54545-9.60613,1.0909-19.24257,1.63638-28.84869h1.18184v27.42445h0c.15151,4.15155.21211,8.33339.48485,12.48494,1.21214,19.36378,1.78789,19.24258-17.51528,23.15169a6.71068,6.71068,0,0,0-1.27275.54546c1.15154.75758,2.303,1.51516,3.45458,2.30305a1.21444,1.21444,0,0,1,.8485.57576c4.60609.03019,9.24248.42424,13.788,0,8.27278-.78789,12.18191-5.21216,12.788-13.42435.36364-5.27277.90909-10.54553,1.36364-15.8183-.72729-7,.33335-13.87889,1.63639-20.75773-.0302-1.27273-.06058-2.51517-.09091-3.78791,0-.18183-.06063-.303-.06063-.27274-.87879.21212.57576-.72728.72729,1.12122.15151-.81819.33334-1.63637.48485-2.45457v31.75781h0c.09091,3.72731.21211,7.4243.27274,11.15161.15151,13.48495-.697,14.69708-13.54555,18.54559-3.54548,1.06062-7.24248,1.697-10.75766,2.87881-2.54548.8788-5.78792.39395-8.18187,3.394,10.45461-.39394,20.24257.78789,29.96993-.78788,10.06067-1.63637,14.0607-5.697,16.12133-15.51527,1.51516-7.21217,2.15154-14.63647,4.90913-21.93955a9.19613,9.19613,0,0,1,.78789,1.57577c1.39395,6.81823,2.7879,13.66677,4.12124,20.485,1.8788,9.54553,5.75763,13.60616,15.45465,15.30315,10.03037,1.72728,20.182.54546,30.576.78788-1.48485-2.54548-3.81822-2.12123-5.697-2.66669-6.45459-1.8788-13.0304-3.48487-19.36378-5.66671-4.60609-1.60607-7.90916-4.54549-7.84853-10.21219.15151-15.51527.06063-31.03054.06063-46.5458h1.87879c.66669,9.72734,1.45455,19.42438,1.96971,29.15173,1.18183,22.485,3.84852,24.93958,26.42444,23.69714,1.27274-2.12122,4.394-.45454,5.57579-2.72729-5.42428-.03019-10.1516-2.63638-15.12133-4.30306a6.40754,6.40754,0,0,1-4.30308-6.5455c.24241-15.93951-.36364-31.93963,1.7879-47.81854,1.303,13.33343,2.33334,26.69717,3.36364,40.0306.48485,6.24247,3.30305,11.12129,9.84857,11.54553,8.84855.60607,17.72742.1515,26.60628.1515a93.74539,93.74539,0,0,0-14.30315-5.27276c-10.84856-3.48488-10.788-3.51518-9.78795-14.54557ZM159.003,86.79793a8.13584,8.13584,0,0,1-8.06067,8.06067c-4.75762.0909-8.33341-2.63639-8.42431-8.81824.51515-4.48488,3.03033-7.54551,8.3637-7.66672C156.54841,78.28274,159.09387,82.10091,159.003,86.79793ZM195.42748,219.3444c.0302,12.27281-9.36371,22.96987-20.09107,22.93957-10.12127-.0302-20.45471-11.9698-20.09106-23.24261h0c-.54546-3.33335-1.12121-6.697-1.8788-11.36371,7.24247,4.93943,13.33344,10.00007,21.485,10.1819,8.33341.15151,14.8789-4.12124,21.69713-9.12127C198.00324,212.73831,194.33655,215.85955,195.42748,219.3444Z"/>
        <path id="path22" class="cls-5"
              d="M118.66932,245.89c-.606-.21212-1.18183-.48485-1.75759-.697-8.30309-3.394-15.485-8.60612-22.15168-14.394-24.06079-20.788-39.9397-46.81853-43.78821-78.39454C46.60816,116.52542,54.63853,83.404,78.57811,54.9492c21.84864-25.93957,49.69734-41.0609,82.94-44.54576,36.93967-3.84852,70.12174,6.48489,98.06136,32.00024,23.30321,21.2729,36.90937,47.63672,40.39422,78.637,2.96973,26.39415-1.78789,51.9095-15.36374,75.09147-12.33342,21.06077-28.7578,38.15181-50.97007,48.97007-.60606.303-1.21214.60607-1.8182.8788h0c-.84849,2.303-1.60608,4.60608-.15151,6.96974h0a9.606,9.606,0,0,1,1.57576-1.36364c33.54572-17.75771,56.8186-44.15185,67.69746-80.87938.9394-3.12124,2.394-4.6667,5.87886-4.30308,4.72729.48485,6-2.66669,6-6.60612q.04482-22.682.02988-45.33367c0-3.24244-.78787-6.81823-4.15152-7.18187-6.1819-.72729-6.93946-5.24245-8.1819-9.63643-7.27275-25.576-21.27288-46.84883-42.06091-63.1823C215.73025.91852,168.82082-5.14214,119.60832,17.52474,83.03228,34.343,59.72909,63.52507,49.18354,102.586c-.66667,2.42425-.36364,5.30308-4.48488,4.45458-5.87883-1.21213-8.091,2.24242-8.12127,7.45462-.09092,15.12133-.03021,30.21234-.03021,45.33367,0,5.03034,2.54547,7.697,7.394,6.51519,4.45458-1.09091,5.5152,1.12123,6.4243,4.51518A119.6437,119.6437,0,0,0,69.78986,210.6777c13.0304,17.6668,28.9093,31.84873,49.09127,40.8791h0c-.06063-1.8788-.12121-3.78791-.21211-5.66671Z"/>
        <path id="path28" class="cls-6"
              d="M118.69963,255.28405c-4.48489,12.57586-16.42437,12.27283-26.576,15.42437,7.63642,1.96971,15.394,4.24246,23.03047,2.93941,4.54549-.78788,5.42428.8485,6.091,3.54549.06063.21212.0909.42424.1515.63637.03021.18182.09091.39394.12121.60607C120.94207,270.64781,120.54812,262.89019,118.69963,255.28405Z"/>
        <path id="path30" class="cls-7"
              d="M230.549,272.07206c9.697,4.394,18.84862-.0302,28.21234-1.303-9.1516-3.87881-21.00017-1.8788-25.81839-13.66677h0C227.82169,261.40531,231.79139,267.16293,230.549,272.07206Z"/>
        <path id="path36" class="cls-4"
              d="M110.18442,343.58775h15.63647c-.27273-.18183-.57575-.36364-.84849-.57577-1.15153-.75758-2.303-1.51517-3.45458-2.303C118.09354,340.52711,114.8814,341.2847,110.18442,343.58775Z"/>
        <path id="path38" class="cls-4"
              d="M223.57922,343.58775h15.21223c-3.09093-1.7879-6.12126-3.30306-9.63645-2.72729C227.97317,343.1635,224.82163,341.46652,223.57922,343.58775Z"/>
        <path id="path40" class="cls-8"
              d="M233.67021,245.07185c22.21228-10.788,38.60636-27.879,50.97007-48.97008,13.57586-23.182,18.3335-48.69732,15.36375-75.09147-3.48486-31.03053-17.06074-57.39437-40.39422-78.63695-27.9396-25.485-61.12167-35.84876-98.06136-31.97-33.21237,3.45458-61.09137,18.60619-82.94,44.54579C54.63855,83.404,46.63849,116.52542,51.00216,152.40446c3.84852,31.60628,19.72743,57.60648,43.78821,78.39454,6.697,5.78792,13.8789,11.03038,22.15169,14.394.57575.24242,1.15153.48485,1.75759.697.39395-7.96977-.54545-15.84861-1.42425-23.75775-.60607-.42424-1.21212-.84849-1.81819-1.303-6.15156-4.45458-11.42433-9.93947-16.7274-15.33345-1.60607-1.63638-3.60608-3.03033-3.60608-5.697-3.57579,2.57579-6.15156.7879-8.24249-2.06063C75.24478,181.85923,68.21443,164.253,67.275,144.43469c-.84849-17.51528.72728-34.54571,8.091-50.93979,9.36371-20.81833,23.75776-36.72753,43.09124-48.54579,3.27274-2,5.15154-.212,7.42431,1.27274a7.63949,7.63949,0,0,0,5.60609-2.78792l-.27274-.63636c-1.9394-4.09094-2.03031-8.72733,2.63639-9.81826,4.697-1.12123,7.36368,2.697,7.394,7.63642,35.06086-11.51522,67.66718-6.84853,97.09163,15.60621,22.00019,16.788,34.60632,39.30332,38.45485,66.75806,4.96975,35.30331-6.96974,64.57625-31.576,89.334a42.16538,42.16538,0,0,1-9.87886,7.51522c-.63636.33334-1.27275.63636-1.9091.9394-1.51516,8.33338-1.60609,16.7577-1.51516,25.182h0C232.45813,245.67789,233.03388,245.37487,233.67021,245.07185Z"/>
        <path id="path42" class="cls-9"
              d="M245.15516,212.34434c24.57592-24.75776,36.51542-54.0307,31.576-89.334-3.84853-27.485-16.45468-50.00039-38.45485-66.75809-29.42447-22.45471-62.06109-27.0911-97.09166-15.60616-.06063.02988-.1212.09091-.18183.12111-2.7576,1.75759-4.90913,5.54549-8.87886,3.18181-.24242-.15163-.45455-.27274-.697-.45454a7.58765,7.58765,0,0,1-5.60609,2.78786c-.09091.36365-.21211.697-.33334,1.06063-2.51518,7.06065-10.06069,8.90914-15.12133,13.15159C96.63883,71.97948,86.45693,85.73717,80.45689,102.404c-9.63644,26.84867-7.66672,53.15191,5.24246,78.546a83.41593,83.41593,0,0,0,7.4243,11.75766,9.90113,9.90113,0,0,1,1.9394,7.06067v.09091h0c0,2.63638,2,4.06063,3.60609,5.697,5.33337,5.394,10.57583,10.87886,16.72739,15.33344.60607.42425,1.21212.8788,1.81819,1.303h0q-.68183-18.091-1.39394-36.1821c-.03021,0-.03021-.0302-.06062-.0302-10.48493-6.87883-18.182-15.66679-19.5153-28.75779-1.66667-16.15164,5.12125-28.09113,18.33348-36.78816.06061-.0302.1212-.0909.18182-.1212h0a57.61344,57.61344,0,0,1,4.15155-24.45472c10.091-26.21234,40.57606-43.42458,65.69746-37.12148a.11241.11241,0,0,1,.0909.02987c16.66679,2.697,30.36385,10.30311,40.18211,24.27291,7.84853,11.18191,11.90917,23.51532,11.0607,37.273h0c9.45464,7.18187,17.09106,15.60619,18.3335,28.06081,1.66669,16.75769-5.48491,29.00023-19.57591,37.54574h0v.15151c-.45455,11.57585-.9394,23.1517-1.39395,34.75783.66668-.303,1.303-.60606,1.9091-.9394a40.62365,40.62365,0,0,0,9.93949-7.54552Z"/>
        <path id="path44" class="cls-10"
              d="M204.33664,118.9497c10.394-5.12124,20.485-2.36365,30.51538.93939.36365.12121.75759.24242,1.12121.36365.8485-13.788-3.21214-26.12143-11.0607-37.273-9.81826-13.9698-23.51532-21.57594-40.1821-24.27293h-.09091c-2.48488.48487-5.24247-.54546-8.30311,1.21213,20.485,17.15164,23.30321,39.15183,19.27288,63.12168.63636-.303,1.24244-.57576,1.8788-.8788C199.82143,121.10121,202.09418,120.07088,204.33664,118.9497Z"/>
        <path id="path46" class="cls-11"
              d="M254.337,148.34385c-1.24244-12.45465-8.87886-20.879-18.33345-28.06081h0c-.36364-.12121-.75759-.24241-1.12121-.36364-10.06067-3.303-20.12137-6.06064-30.51538-.9394-2.24244,1.12121-4.54549,2.18184-6.81823,3.24244-.63636.303-1.24244.57576-1.8788.8788-1.51515,1.72729-2.9091,3.60608-4.54548,5.21217-9.81826,9.57582-11.18191,21.42441-8.57582,33.97,3.96973,19.12137,27.30324,35.03057,52.0913,23.69715.0302-.0302.0909-.0302.12121-.06063C248.85218,177.34407,256.03405,165.07126,254.337,148.34385ZM217.27614,181.829a28.7298,28.7298,0,1,1,.697-57.455c16.12134.1212,28.45478,12.81829,28.33357,29.12143C246.18559,169.67735,233.57931,181.98047,217.27614,181.829Z"/>
        <path id="path48" class="cls-12"
              d="M114.6087,120.37394c-13.21222,8.697-20.00015,20.63653-18.33348,36.78816,1.33335,13.091,9.03037,21.879,19.5153,28.75779.0302,0,.0302.0302.06062.0302a63.40628,63.40628,0,0,0,19.12135,2.8485c22.60623-.33334,39.667-23.42441,33.273-45.30337-6.15157-21.00017-28.51535-34.78813-53.39434-23.24261h0a.88535.88535,0,0,0-.24242.12121Zm18.06075,61.455c-16.51527.06063-29.30324-12.60616-29.24264-29.03053.0302-16.12134,12.60615-28.60629,28.81839-28.69719a28.86671,28.86671,0,1,1,.42425,57.72772Z"/>
        <path id="path50" class="cls-13"
              d="M159.06357,221.70805c-1.12121-1.12123-1.9394-2.63639-3.8182-2.66669h0c-.36364,11.27281,9.93947,23.21229,20.09107,23.2426,10.75766.0302,20.12137-10.66675,20.09107-22.93958-4.06064,2.09093-6.63642,6.394-11.30312,7.66672C174.82129,229.55658,166.27577,228.9202,159.06357,221.70805Z"/>
        <path id="path52" class="cls-14"
              d="M196.54871,208.73825c-6.81823,5-13.33344,9.27281-21.69712,9.12128-8.18188-.15151-14.24254-5.24248-21.485-10.18191.78789,4.66669,1.33335,8.00007,1.8788,11.36372h0c1.8788.06058,2.697,1.54545,3.8182,2.66669,7.18187,7.21217,15.75769,7.84853,25.0608,5.30307,4.66669-1.27274,7.24247-5.54549,11.30311-7.66672C194.33657,215.8595,198.00326,212.73826,196.54871,208.73825Z"/>
        <path id="path54" class="cls-15"
              d="M150.88169,78.40394c-5.36367.09091-7.87885,3.15154-8.3637,7.66673.0909,6.18187,3.66669,8.87886,8.42431,8.81825a8.13584,8.13584,0,0,0,8.06067-8.06069C159.09387,82.10093,156.54841,78.28274,150.88169,78.40394Z"/>
        <path id="path56" class="cls-16"
              d="M95.0631,199.73819a9.9012,9.9012,0,0,0-1.9394-7.06067,86.26181,86.26181,0,0,1-7.4243-11.75766c-12.90918-25.39412-14.90921-51.69736-5.24246-78.546,6.00005-16.66676,16.18194-30.42445,29.90932-41.9094,5.06063-4.24244,12.60616-6.06064,15.12132-13.1516a10.85644,10.85644,0,0,0,.33334-1.06061c-2.27274-1.48485-4.15154-3.27274-7.42431-1.27274C99.06313,56.79772,84.66909,72.70692,75.30537,93.5253c-7.36369,16.394-8.93946,33.42449-8.091,50.93977.9697,19.788,7.96977,37.42452,19.60622,53.30344,2.09092,2.8485,4.697,4.63639,8.24248,2.06063h0Z"/>
        <path id="path58" class="cls-17"
              d="M140.97253,40.76729c.06063-.02987.12121-.0909.18184-.1211-.06063-4.93946-2.697-8.75766-7.394-7.63645-4.66669,1.12123-4.57579,5.75765-2.63639,9.81826l.27274.63636a6.72978,6.72978,0,0,0,.697.45457c3.96973,2.39395,6.12127-1.42427,8.87886-3.15154Z"/>
        <path id="path60" class="cls-3"
              d="M246.30667,153.52571c.1211-16.27284-12.21223-28.96992-28.33357-29.12143a28.7298,28.7298,0,1,0-.697,57.455C233.57926,181.98047,246.18541,169.67735,246.30667,153.52571Zm-27.60628,3.15154c-5.45459.09091-8.63643-3-9.12128-8.36371a8.79307,8.79307,0,0,1,9.00007-9.33341c5.33338.39395,8.33338,3.51519,8.96977,9.091C226.82166,153.04084,224.2762,156.58632,218.70039,156.67725Z"/>
        <path id="path62" class="cls-3"
              d="M132.2452,124.13154a28.49516,28.49516,0,0,0-28.81839,28.69719c-.0302,16.42437,12.72737,29.09113,29.24264,29.03053a28.86671,28.86671,0,1,0-.42425-57.72772Zm.0302,32.54569c-5.394.06063-8.63642-3.03033-9.06067-8.45462a8.75768,8.75768,0,0,1,9.12128-9.21217c5.27277.45454,8.36371,3.51518,8.84856,9.091C140.51788,153.22265,137.73,156.61662,132.2754,156.67723Z"/>
        <path id="path64" class="cls-18"
              d="M218.57918,138.98013a8.76031,8.76031,0,0,0-9.00007,9.33341c.48485,5.394,3.66669,8.45462,9.12128,8.36371,5.54548-.0909,8.12127-3.63639,8.84856-8.60612C226.91259,142.49534,223.91256,139.37411,218.57918,138.98013Z"/>
        <path id="path66" class="cls-19"
              d="M132.33611,139.01044a8.75768,8.75768,0,0,0-9.12128,9.21217c.42425,5.42429,3.66669,8.51522,9.06067,8.45462,5.45459-.06058,8.24248-3.45458,8.90917-8.57582C140.66951,142.49529,137.57858,139.43468,132.33611,139.01044Z"/>
    </g>
</svg>
