<svg xmlns="http://www.w3.org/2000/svg" width="24" height="22" fill-rule="evenodd" clip-rule="evenodd" style=""><rect id="backgroundrect" width="100%" height="100%" x="0" y="0" fill="none" stroke="none"/><g class="currentLayer" style=""><title>Layer 1</title><path d="M5.661999791383743,22.000001668930054 l-5.369,-5.365 c-0.19500000000000003,-0.19500000000000003 -0.29300000000000004,-0.45 -0.29300000000000004,-0.7070000000000001 c0,-0.256 0.09800000000000003,-0.512 0.29300000000000004,-0.7070000000000001 l14.929,-14.928 c0.19500000000000003,-0.19400000000000003 0.451,-0.29300000000000004 0.7070000000000001,-0.29300000000000004 c0.255,0 0.512,0.09900000000000003 0.7070000000000001,0.29300000000000004 l7.071,7.073 c0.19600000000000004,0.19500000000000003 0.29300000000000004,0.451 0.29300000000000004,0.7080000000000001 c0,0.256 -0.09700000000000003,0.511 -0.29300000000000004,0.7070000000000001 l-11.216,11.219 h5.514 v2 h-12.343 zm3.657,-2 l-5.486,-5.486 l-1.419,1.4140000000000001 l4.076,4.072 h2.829 zm6.605,-17.581 l-10.677,10.68 l5.658,5.659 l10.676,-10.682 l-5.657,-5.657 z" id="svg_1" class="selected" fill-opacity="1" fill="#3d70b2"/></g></svg>