<?xml version="1.0" encoding="utf-8"?>
<!-- Generator: Adobe Illustrator 23.1.1, SVG Export Plug-In . SVG Version: 6.00 Build 0)  -->
<svg version="1.0" id="icon" xmlns="http://www.w3.org/2000/svg" xmlns:xlink="http://www.w3.org/1999/xlink" x="0px" y="0px"
	 viewBox="0 0 32 32" enable-background="new 0 0 32 32" xml:space="preserve">

<polygon points="13,21 26.2,21 23.6,23.6 25,25 30,20 25,15 23.6,16.4 26.2,19 13,19 "/>
<path d="M22,14v-4c0-0.3-0.1-0.5-0.3-0.7l-7-7C14.5,2.1,14.3,2,14,2H4C2.9,2,2,2.9,2,4v24c0,1.1,0.9,2,2,2h16c1.1,0,2-0.9,2-2v-2h-2
	v2H4V4h8v6c0,1.1,0.9,2,2,2h6v2H22z M14,10V4.4l5.6,5.6H14z"/>
</svg>
