<svg xmlns:dc="http://purl.org/dc/elements/1.1/" xmlns:cc="http://creativecommons.org/ns#" xmlns:rdf="http://www.w3.org/1999/02/22-rdf-syntax-ns#" xmlns:svg="http://www.w3.org/2000/svg" xmlns="http://www.w3.org/2000/svg" xmlns:sodipodi="http://sodipodi.sourceforge.net/DTD/sodipodi-0.dtd" xmlns:inkscape="http://www.inkscape.org/namespaces/inkscape" version="1.1" inkscape:version="0.48.3.1 r9886" width="1909" height="1408" sodipodi:docname="folder_open_alt_font_awesome.svg"><rect id="backgroundrect" width="100%" height="100%" x="0" y="0" fill="none" stroke="none" class="" style=""/>
  <metadata id="metadata3011">
    <rdf:RDF>
      <cc:Work rdf:about="">
        <dc:format>image/svg+xml</dc:format>
        <dc:type rdf:resource="http://purl.org/dc/dcmitype/StillImage"/>
      </cc:Work>
    </rdf:RDF>
  </metadata>
  <defs id="defs3009"/>
  <sodipodi:namedview pagecolor="#ffffff" bordercolor="#666666" borderopacity="1" objecttolerance="10" gridtolerance="10" guidetolerance="10" inkscape:pageopacity="0" inkscape:pageshadow="2" inkscape:window-width="640" inkscape:window-height="480" id="namedview3007" showgrid="false" inkscape:zoom="0.13169643" inkscape:cx="954.5" inkscape:cy="896" inkscape:window-x="0" inkscape:window-y="25" inkscape:window-maximized="0" inkscape:current-layer="svg3001"/>
  
<g class="currentLayer" style=""><title>Layer 1</title><g id="g3003" class="" fill-opacity="1" fill="#3d70b2">
    <path d="m1781.000000064331,802.9999939453126 q0,-35 -53,-35 H640.0000000643311 Q600.0000000643311,767.9999939453126 554.5000000643311,789.4999939453126 Q509.00000006433106,810.9999939453126 483.00000006433106,841.9999939453126 L189.00000006433106,1204.9999939453126 q-18,24 -18,40 q0,35 53,35 h1088 q40,0 86,-22 q46,-22 71,-53 l294,-363 q18,-22 18,-39 zM640.0000000643311,639.9999939453126 h768 v-160 q0,-40 -28,-68 q-28,-28 -68,-28 H736.0000000643311 q-40,0 -68,-28 q-28,-28 -28,-68 v-64 q0,-40 -28,-68 q-28,-28 -68,-28 H224.00000006433106 q-40,0 -68,28 q-28,28 -28,68 V1076.9999939453126 l256,-315 q44,-53 116,-87.5 q72,-34.5 140,-34.5 zM1909.000000064331,802.9999939453126 q0,62 -46,120 L1568.000000064331,1285.9999939453126 Q1525.000000064331,1338.9999939453126 1452.000000064331,1373.4999939453126 Q1379.000000064331,1407.9999939453126 1312.000000064331,1407.9999939453126 H224.00000006433106 Q132.00000006433106,1407.9999939453126 66.00000006433106,1341.9999939453126 Q6.433105426140173e-8,1275.9999939453126 6.433105426140173e-8,1183.9999939453126 v-960 q0,-92 66,-158 q66,-66 158,-66 h320 q92,0 158,66 q66,66 66,158 v32 h544 q92,0 158,66 q66,66 66,158 V639.9999939453126 h192 q54,0 99,24.5 q45,24.5 67,70.5 q15,32 15,68 z" id="path3005" inkscape:connector-curvature="0" style="" stroke-width="0" fill="#3d70b2"/>
  </g></g></svg>