<svg height="572pt" viewBox="-18 -18 572.00902 572" width="572pt" xmlns="http://www.w3.org/2000/svg"><path d="m399.488281 255.601562h-269.894531c-6.886719 0-12.46875 5.585938-12.46875 12.472657 0 6.890625 5.582031 12.472656 12.46875 12.472656h269.894531c6.890625 0 12.472657-5.582031 12.472657-12.472656 0-6.886719-5.582032-12.472657-12.472657-12.472657zm0 0"/><path d="m268.15625-.0742188c-108.457031-.0195312-206.242188 65.3085938-247.746094 165.5117188-41.496094 100.207031-18.542968 215.542969 58.171875 292.210938 104.703125 104.703124 274.453125 104.703124 379.152344 0 104.699219-104.695313 104.699219-274.445313 0-379.148438-50.167969-50.453125-118.429687-78.746094-189.578125-78.5742188zm0 511.3554688c-134.074219 0-243.203125-109.132812-243.203125-243.207031s109.128906-243.203125 243.203125-243.203125 243.207031 109.128906 243.207031 243.203125-109.132812 243.207031-243.207031 243.207031zm0 0"/></svg>