<?xml version="1.0" standalone="no"?>
<!DOCTYPE svg PUBLIC "-//W3C//DTD SVG 20010904//EN"
 "http://www.w3.org/TR/2001/REC-SVG-20010904/DTD/svg10.dtd">
<svg version="1.0" xmlns="http://www.w3.org/2000/svg"
 width="1200.000000pt" height="397.000000pt" viewBox="0 0 1200.000000 397.000000"
 preserveAspectRatio="xMidYMid meet">

<g transform="translate(0.000000,397.000000) scale(0.100000,-0.100000)"
fill="#000000" stroke="none">
<path d="M9384 3442 c-54 -59 -81 -94 -130 -167 -15 -22 -44 -59 -65 -82 -22
-24 -39 -47 -39 -52 0 -6 -19 -33 -42 -60 -24 -27 -57 -69 -75 -93 -18 -24
-48 -63 -68 -88 -19 -25 -43 -58 -53 -74 -9 -16 -33 -48 -53 -71 -55 -65 -182
-233 -204 -270 -11 -18 -35 -50 -53 -71 -89 -106 -185 -232 -195 -254 -6 -14
-27 -44 -47 -67 -19 -23 -52 -63 -72 -90 -21 -26 -60 -77 -88 -112 -27 -35
-50 -69 -50 -75 0 -7 -14 -25 -31 -42 -17 -16 -37 -41 -45 -56 -8 -15 -40 -47
-73 -72 l-58 -45 -12 25 c-8 18 -11 195 -11 613 l0 588 -23 34 -23 34 -132 3
-133 3 -19 -43 c-19 -42 -20 -76 -20 -1156 0 -978 2 -1117 15 -1142 9 -17 21
-30 29 -30 7 0 27 21 44 48 17 26 53 75 79 108 27 34 68 87 93 119 25 32 60
81 79 109 18 28 37 53 40 56 4 3 24 29 45 58 21 28 41 52 45 52 4 0 18 19 30
41 13 23 35 51 48 63 14 11 31 36 39 54 13 31 43 71 125 165 20 23 44 56 52
73 9 17 23 34 31 37 8 3 25 25 36 47 12 23 52 79 89 124 37 46 78 99 90 119
12 19 28 37 36 41 8 3 23 22 34 43 10 21 32 52 47 69 16 17 54 67 84 110 30
44 69 94 87 112 18 18 33 39 33 46 0 8 17 32 38 54 20 22 60 73 87 113 28 39
67 92 88 116 20 24 37 49 37 54 0 5 17 27 38 48 20 22 60 72 87 112 28 40 64
89 81 109 17 19 39 49 48 67 9 17 24 38 35 45 10 7 27 27 37 43 11 17 46 65
79 108 33 43 74 99 92 124 18 25 36 49 42 52 19 12 100 144 107 174 11 51 -8
57 -194 57 l-164 0 -54 -58z"/>
<path d="M914 2860 c-76 -10 -118 -28 -177 -73 -26 -20 -55 -38 -64 -42 -30
-10 -96 -121 -97 -163 -1 -36 0 -37 43 -43 24 -3 414 -4 867 -1 648 4 828 7
841 18 15 10 19 33 21 142 l4 130 -28 19 c-27 17 -66 18 -689 19 -363 1 -687
-2 -721 -6z"/>
<path d="M3019 2847 l-34 -23 0 -639 c0 -578 2 -646 18 -700 9 -33 22 -76 27
-96 5 -20 21 -49 36 -65 14 -16 34 -45 44 -65 10 -20 36 -49 57 -64 21 -16 40
-33 42 -38 1 -4 49 -31 105 -58 137 -68 175 -71 717 -67 384 3 440 5 454 19
12 12 17 46 22 140 5 119 5 125 -17 144 -21 19 -40 20 -509 25 -444 5 -489 7
-512 23 -13 9 -40 28 -60 41 -23 16 -47 47 -70 92 l-34 69 -3 617 -2 617 -31
25 c-28 24 -38 26 -123 26 -80 0 -98 -3 -127 -23z"/>
<path d="M5542 2860 c-101 -11 -108 -13 -187 -65 -95 -63 -160 -137 -167 -192
-11 -81 -76 -76 849 -69 479 4 828 11 843 17 14 5 35 24 48 42 19 29 22 46 22
129 0 95 0 97 -31 122 l-31 26 -636 -1 c-350 -1 -670 -5 -710 -9z"/>
<path d="M10290 2855 c-114 -14 -158 -29 -306 -109 -88 -47 -254 -187 -254
-214 0 -6 -16 -29 -35 -52 -22 -27 -42 -67 -55 -113 -12 -40 -28 -90 -37 -112
-13 -31 -18 -85 -21 -235 -4 -209 7 -346 32 -395 9 -17 21 -56 27 -87 9 -43
21 -68 45 -94 19 -19 34 -40 34 -46 0 -15 191 -197 215 -204 11 -4 36 -18 55
-33 31 -23 135 -64 275 -107 37 -12 96 -16 225 -16 155 0 182 2 235 21 33 12
94 33 135 47 41 13 86 32 100 42 14 11 45 28 70 39 90 40 248 203 277 287 7
20 21 49 32 65 34 47 42 107 48 341 7 283 -5 411 -46 484 -15 28 -34 67 -41
86 -22 57 -149 197 -205 227 -16 9 -44 28 -62 43 -17 15 -61 38 -97 50 -36 12
-68 26 -72 31 -15 24 -77 42 -197 55 -157 16 -224 16 -377 -1z m307 -255 c92
-12 257 -90 326 -154 26 -24 47 -48 47 -54 0 -6 15 -29 34 -51 52 -62 59 -111
54 -420 -4 -298 -5 -300 -80 -393 -141 -176 -459 -285 -623 -213 -16 7 -64 23
-106 35 -42 12 -91 34 -109 49 -71 58 -170 163 -170 181 0 10 -11 32 -25 48
-38 46 -47 120 -43 362 l3 215 48 93 c57 111 123 180 217 227 36 18 80 40 98
50 56 29 208 41 329 25z"/>
<path d="M546 2179 l-26 -20 0 -337 c0 -405 15 -526 64 -545 8 -3 24 -24 36
-47 11 -22 24 -40 29 -40 5 0 22 -14 38 -30 50 -54 167 -110 252 -121 47 -6
327 -9 727 -7 534 2 654 5 667 17 14 11 17 35 17 147 0 126 -1 134 -22 148
-20 14 -101 16 -683 16 l-661 0 -44 23 c-31 15 -51 35 -67 66 -21 41 -23 56
-23 212 l0 168 26 20 c26 21 34 21 692 21 470 0 676 3 703 11 50 15 59 43 59
175 l0 102 -43 21 c-43 21 -52 21 -879 21 -830 0 -835 0 -862 -21z"/>
<path d="M5170 2188 c-62 -18 -60 -4 -60 -329 0 -299 10 -441 35 -469 7 -8 20
-42 30 -75 14 -51 27 -70 82 -123 35 -35 84 -72 107 -83 23 -10 53 -27 67 -37
54 -43 106 -45 807 -38 542 5 670 9 698 21 l34 14 0 129 0 128 -35 17 c-32 15
-97 17 -678 18 -353 0 -660 3 -682 7 -39 7 -41 8 -113 112 -14 20 -18 53 -21
186 l-3 162 28 19 c26 17 67 18 714 20 490 2 691 6 707 14 32 17 43 60 43 174
0 93 -2 103 -23 123 l-23 22 -840 -1 c-526 0 -852 -5 -874 -11z"/>
</g>
</svg>
