<svg xmlns="http://www.w3.org/2000/svg" xmlns:xlink="http://www.w3.org/1999/xlink" viewBox="0 0 213.69 200">
    <defs>
        <style>
            .cls-1{isolation:isolate;}.cls-2{fill:url(#linear-gradient);}.cls-3{fill:#909faf;}.cls-4{fill:#fff;}.cls-5{fill:#00b6cb;}.cls-6{fill:#5a6872;}.cls-7,.cls-8{fill:#dfe3e6;}.cls-7{mix-blend-mode:multiply;}
        </style>
        <linearGradient id="linear-gradient" x1="100.01" y1="198.49" x2="100.01" y2="-7.76"
                        gradientUnits="userSpaceOnUse">
            <stop offset="0" stop-color="#fff"/>
            <stop offset="1" stop-color="#909faf"/>
        </linearGradient>
    </defs>
    <title>Active-state_Drag-drop-file</title>
    <g class="cls-1">
        <g id="Artwork">
            <circle class="cls-2" cx="100.01" cy="99.74" r="100"/>
            <path class="cls-3" d="M26.11,167.59a100,100,0,0,0,147.85,0Z"/>
            <circle class="cls-4" cx="67.69" cy="25.37" r="2.5"/>
            <path class="cls-4"
                  d="M30.54,167.67V58.09A2.07,2.07,0,0,1,32.61,56H168.47a2.07,2.07,0,0,1,2.07,2.07V167.67Z"/>
            <path class="cls-5"
                  d="M121.55,113.66h-19v-19a2,2,0,0,0-4,0v19h-19a2,2,0,1,0,0,4h19v19a2,2,0,0,0,4,0v-19h19a2,2,0,0,0,0-4Z"/>
            <path class="cls-6" d="M170.54,144.15a2,2,0,0,0,2-2v-10a2,2,0,0,0-4,0v10A2,2,0,0,0,170.54,144.15Z"/>
            <path class="cls-6" d="M170.54,121.15a2,2,0,0,0,2-2v-10a2,2,0,0,0-4,0v10A2,2,0,0,0,170.54,121.15Z"/>
            <path class="cls-6" d="M170.54,75.15a2,2,0,0,0,2-2v-10a2,2,0,0,0-4,0v10A2,2,0,0,0,170.54,75.15Z"/>
            <path class="cls-6" d="M170.54,98.15a2,2,0,0,0,2-2v-10a2,2,0,0,0-4,0v10A2,2,0,0,0,170.54,98.15Z"/>
            <path class="cls-6" d="M83,58H93a2,2,0,1,0,0-4H83a2,2,0,0,0,0,4Z"/>
            <path class="cls-6" d="M106,58h10a2,2,0,1,0,0-4H106a2,2,0,0,0,0,4Z"/>
            <path class="cls-6" d="M129,58h10a2,2,0,0,0,0-4H129a2,2,0,1,0,0,4Z"/>
            <path class="cls-6" d="M152,58h10a2,2,0,0,0,0-4H152a2,2,0,0,0,0,4Z"/>
            <path class="cls-6" d="M37,58H47a2,2,0,0,0,0-4H37a2,2,0,0,0,0,4Z"/>
            <path class="cls-6" d="M72,56a2,2,0,0,0-2-2H60a2,2,0,0,0,0,4H70A2,2,0,0,0,72,56Z"/>
            <path class="cls-6" d="M30.54,144.53a2,2,0,0,0,2-2v-10a2,2,0,0,0-4,0v10A2,2,0,0,0,30.54,144.53Z"/>
            <path class="cls-6" d="M30.54,121.53a2,2,0,0,0,2-2v-10a2,2,0,0,0-4,0v10A2,2,0,0,0,30.54,121.53Z"/>
            <path class="cls-6" d="M30.54,98.53a2,2,0,0,0,2-2v-10a2,2,0,0,0-4,0v10A2,2,0,0,0,30.54,98.53Z"/>
            <path class="cls-6" d="M30.54,75.53a2,2,0,0,0,2-2v-10a2,2,0,0,0-4,0v10A2,2,0,0,0,30.54,75.53Z"/>
            <path class="cls-6"
                  d="M51,165.65H32.53s0-.07,0-.12v-10a2,2,0,0,0-4,0v10c0,.05,0,.08,0,.12H2a2,2,0,1,0,0,4H51a2,2,0,0,0,0-4Z"/>
            <path class="cls-6" d="M198,165.65h-8.21a2,2,0,0,0,0,4H198a2,2,0,0,0,0-4Z"/>
            <path class="cls-6"
                  d="M178.73,165.65h-6.26a2,2,0,0,0,.07-.5v-10a2,2,0,0,0-4,0v10a2,2,0,0,0,.07.5H63.73a2,2,0,1,0,0,4h115a2,2,0,0,0,0-4Z"/>
            <path class="cls-6"
                  d="M100,3.74a96,96,0,1,1-96,96,96.11,96.11,0,0,1,96-96m0-4a100,100,0,1,0,100,100A100,100,0,0,0,100-.26Z"/>
            <path class="cls-7"
                  d="M112.49,54.07l26.13,64.7a6.5,6.5,0,0,0-3.27,7.08,6.39,6.39,0,0,0-2.74,3.36,6.53,6.53,0,0,0,1.71,6.95l2.54,2.53a4.07,4.07,0,0,0-.17,1.16v.44c0,.37,0,.75,0,1.12a10.89,10.89,0,0,0,10.83,10.71l4.7,0,5.25,0a12.11,12.11,0,0,0,8.32-3.22c1.92-1.79,3.42-3.29,4.73-4.73a14.68,14.68,0,0,0,.68-18.9L120.48,56H117.9c-.08-2.33-2.63-2-2.63-2Z"/>
            <path class="cls-4"
                  d="M209.74,105.7l-57.35,23.06a3.1,3.1,0,0,1-4-1.72L120.82,58.57a3.11,3.11,0,0,1,1.72-4L166,37.05,189.51,47.1l21.94,54.57A3.1,3.1,0,0,1,209.74,105.7Z"/>
            <path class="cls-8"
                  d="M166.89,39.17l5,12.53A2.26,2.26,0,0,0,174.86,53l12.52-5a2.21,2.21,0,0,0,1.23-1.21l-21.7-9.25A2.23,2.23,0,0,0,166.89,39.17Z"/>
            <path class="cls-6"
                  d="M213.31,100.93,191.36,46.36a2,2,0,0,0-1.07-1.1l-.77-.33-.12-.07-7.51-3.2-15.07-6.45a2,2,0,0,0-1.53,0L121.8,52.68A5.1,5.1,0,0,0,119,59.31l27.54,68.48a5.1,5.1,0,0,0,4.73,3.2,5.26,5.26,0,0,0,1.9-.37l57.34-23.07a5.08,5.08,0,0,0,2.83-6.62ZM180.25,45.31l4,1.71-10.12,4.07a.25.25,0,0,1-.19,0,.27.27,0,0,1-.14-.14l-4.07-10.13Zm29.34,58a1.1,1.1,0,0,1-.6.58l-57.34,23.07a1.1,1.1,0,0,1-1.43-.61L122.68,57.82a1.07,1.07,0,0,1,0-.84,1.09,1.09,0,0,1,.6-.59L165,39.64c0,.09.05.19.09.28l5,12.52a4.25,4.25,0,0,0,4,2.67,4.16,4.16,0,0,0,1.58-.31l12.53-5c.08,0,.16-.08.24-.12l21.23,52.78A1.11,1.11,0,0,1,209.59,103.26Z"/>
            <path class="cls-6"
                  d="M163.19,61.91a2,2,0,0,0-2.6-1.11l-20.51,8.25A2,2,0,0,0,139,71.66a2,2,0,0,0,1.85,1.25,2.17,2.17,0,0,0,.75-.14l20.51-8.25A2,2,0,0,0,163.19,61.91Z"/>
            <path class="cls-6"
                  d="M160.93,78a2,2,0,0,0-2.6-1.11l-13,5.22a2,2,0,0,0,.75,3.86,1.92,1.92,0,0,0,.74-.15l13-5.22A2,2,0,0,0,160.93,78Z"/>
            <path class="cls-6"
                  d="M164.62,87.21A2,2,0,0,0,162,86.1l-13,5.22a2,2,0,1,0,1.5,3.71l13-5.22A2,2,0,0,0,164.62,87.21Z"/>
            <path class="cls-6"
                  d="M168.35,96.47a2,2,0,0,0-2.6-1.11l-13,5.22a2,2,0,0,0-1.11,2.61,2,2,0,0,0,2.6,1.1l13-5.22A2,2,0,0,0,168.35,96.47Z"/>
            <path class="cls-6" d="M169.47,104.62l-13,5.23a2,2,0,0,0,1.5,3.71l13-5.23a2,2,0,0,0-1.49-3.71Z"/>
            <path class="cls-6"
                  d="M168.34,77.05a2,2,0,0,0,.75-.15l13-5.22a2,2,0,0,0-1.5-3.71l-13,5.22a2,2,0,0,0,.75,3.86Z"/>
            <path class="cls-6"
                  d="M186.88,78.26a2,2,0,0,0-2.6-1.11l-13,5.22a2,2,0,1,0,1.49,3.71l13-5.22A2,2,0,0,0,186.88,78.26Z"/>
            <path class="cls-6"
                  d="M190.6,87.52a2,2,0,0,0-2.6-1.11l-13,5.22a2,2,0,0,0,.75,3.86,1.92,1.92,0,0,0,.74-.15l13-5.22A2,2,0,0,0,190.6,87.52Z"/>
            <path class="cls-6" d="M191.73,95.67l-13,5.23a2,2,0,0,0,1.49,3.71l13-5.23a2,2,0,1,0-1.49-3.71Z"/>
            <path class="cls-4"
                  d="M155.23,147l-4.69,0a8.9,8.9,0,0,1-8.85-8.75v-1.52a2,2,0,0,1,.67-1.49c-1.21-1.21-2.42-2.41-3.62-3.62a4.51,4.51,0,0,1-1.23-4.87,4.43,4.43,0,0,1,3.46-2.9,4.45,4.45,0,0,1-.75-2.79,4.32,4.32,0,0,1,2.6-3.78,4.47,4.47,0,0,1,1.9-.44,4.23,4.23,0,0,1,1.93.47,4.59,4.59,0,0,1,.1-.51,4.49,4.49,0,0,1,2.9-3.16,4.29,4.29,0,0,1,4.45.91,4.46,4.46,0,0,1,4.4-3.6,4.61,4.61,0,0,1,2.77.92c.13.11.27.22.39.34,1.05,1.06,2.1,2.1,3.16,3.14,2.38,2.36,4.85,4.8,7.19,7.3a12.65,12.65,0,0,1,0,17.06c-1.27,1.39-2.73,2.86-4.61,4.61a10.16,10.16,0,0,1-7,2.68Z"/>
            <path class="cls-6"
                  d="M158.5,113a2.57,2.57,0,0,1,1.55.51l.2.17c3.44,3.45,7,6.83,10.3,10.39a10.71,10.71,0,0,1,0,14.34c-1.42,1.57-2.95,3-4.49,4.5a8.12,8.12,0,0,1-5.63,2.14l-5.23,0-4.65,0a6.89,6.89,0,0,1-6.87-6.8c0-.49,0-1,0-1.47l.16-.12c.65.67,1.29,1.35,2,2a1.3,1.3,0,0,0,.89.45,1,1,0,0,0,.68-.31c.42-.43.36-1-.19-1.52q-3.51-3.53-7-7a2.54,2.54,0,0,1-.75-2.8,2.44,2.44,0,0,1,2.33-1.63,2.5,2.5,0,0,1,1.68.65c.86.77,1.62,1.65,2.49,2.41a1.37,1.37,0,0,0,.86.29.78.78,0,0,0,.22,0,1,1,0,0,0,.61-.77,1.52,1.52,0,0,0-.44-1c-1.34-1.38-2.72-2.73-4.09-4.08a2.56,2.56,0,0,1-.84-2.07,2.34,2.34,0,0,1,1.44-2.1,2.48,2.48,0,0,1,1.06-.25,2.37,2.37,0,0,1,1.48.54,18,18,0,0,1,1.49,1.41c1,1,2,2,3,3a1.29,1.29,0,0,0,.9.43.9.9,0,0,0,.68-.31c.4-.41.33-1-.2-1.52-.92-.93-1.87-1.83-2.76-2.78a2.49,2.49,0,0,1,1-4.13,2.52,2.52,0,0,1,.83-.15,2.54,2.54,0,0,1,1.76.8c.92.89,1.81,1.81,2.72,2.72a1.41,1.41,0,0,0,.94.46.86.86,0,0,0,.64-.28c.44-.45.38-1-.16-1.58a5.45,5.45,0,0,1-.66-.78,2.44,2.44,0,0,1,.46-3.15,2.49,2.49,0,0,1,1.65-.61m0-4a6.48,6.48,0,0,0-4.32,1.63,6.64,6.64,0,0,0-1,1.13,6.31,6.31,0,0,0-2-.34,6.51,6.51,0,0,0-2.16.38,6.61,6.61,0,0,0-3.64,3.12c-.2,0-.42,0-.63,0a6.56,6.56,0,0,0-2.75.62,6.35,6.35,0,0,0-3.75,5.48,7.1,7.1,0,0,0,.13,1.79,6.35,6.35,0,0,0-2.73,3.37,6.49,6.49,0,0,0,1.71,6.94l2.53,2.53a4.07,4.07,0,0,0-.17,1.16v1.56A10.9,10.9,0,0,0,150.52,149l4.69,0,5.27,0a12.09,12.09,0,0,0,8.31-3.22c1.93-1.79,3.43-3.29,4.73-4.73a14.67,14.67,0,0,0-.05-19.77c-2.37-2.53-4.85-5-7.25-7.35q-1.58-1.56-3.14-3.13c-.23-.22-.44-.39-.59-.51a6.57,6.57,0,0,0-4-1.34Z"/>
            <path class="cls-4"
                  d="M109.55,35.67a3.26,3.26,0,0,1-3.25-3.25.75.75,0,0,0-1.5,0,3.26,3.26,0,0,1-3.25,3.25.75.75,0,0,0,0,1.5,3.25,3.25,0,0,1,3.25,3.25.75.75,0,0,0,1.5,0,3.25,3.25,0,0,1,3.25-3.25.75.75,0,0,0,0-1.5Z"/>
            <path class="cls-4"
                  d="M19.15,102.94a1.75,1.75,0,0,1-1.75-1.75.75.75,0,0,0-1.5,0,1.76,1.76,0,0,1-1.75,1.75.75.75,0,0,0,0,1.5,1.75,1.75,0,0,1,1.75,1.75.75.75,0,0,0,1.5,0,1.75,1.75,0,0,1,1.75-1.75.75.75,0,1,0,0-1.5Z"/>
        </g>
    </g>
</svg>
