<?xml version="1.0" standalone="no"?>
<!DOCTYPE svg PUBLIC "-//W3C//DTD SVG 20010904//EN"
 "http://www.w3.org/TR/2001/REC-SVG-20010904/DTD/svg10.dtd">
<svg version="1.0" xmlns="http://www.w3.org/2000/svg"
 width="32.000000pt" height="32.000000pt" viewBox="0 0 32.000000 32.000000"
 preserveAspectRatio="xMidYMid meet">
<metadata>
Created by potrace 1.16, written by Peter Selinger 2001-2019
</metadata>
<g transform="translate(0.000000,32.000000) scale(0.100000,-0.100000)"
fill="#000000" stroke="none">
<path d="M50 160 l0 -140 110 0 110 0 0 113 c0 111 -1 114 -28 140 -26 25 -35
27 -110 27 l-82 0 0 -140z m158 103 c2 -15 10 -23 23 -23 18 0 19 -8 19 -105
l0 -105 -90 0 -90 0 0 130 0 131 68 -3 c61 -3 67 -5 70 -25z"/>
</g>
</svg>
