<svg xmlns="http://www.w3.org/2000/svg" xmlns:xlink="http://www.w3.org/1999/xlink" version="1.1" style="enable-background:new 0 0 475 475;" xml:space="preserve" width="371" height="476"><rect id="backgroundrect" width="100%" height="100%" x="0" y="0" fill="none" stroke="none" class="" style=""/>
















<g class="currentLayer" style=""><title>Layer 1</title><g id="svg_1" class="selected" fill-opacity="1" fill="#3d70b2">
	<path style="" d="M364.4510498046875,127.69930064678192 L244.4510498046875,7.699300646781921 c-4,-4 -9,-7 -15,-7 h-206 c-12,0 -22,10 -22,22 v432 c0,12 10,21 22,21 h326 c12,0 22,-9 22,-21 V142.69930064678192 C371.4510498046875,136.69930064678192 368.4510498046875,131.69930064678192 364.4510498046875,127.69930064678192 zM327.4510498046875,432.6993006467819 h-282 V44.69930064678192 h129 v129 c0,12 10,22 22,22 h131 V432.6993006467819 zM218.4510498046875,151.69930064678192 V44.69930064678192 h2 l107,107 H218.4510498046875 z" id="svg_2" fill="#3d70b2"/>
</g><g id="svg_3" class="">
</g><g id="svg_4" class="">
</g><g id="svg_5" class="">
</g><g id="svg_6" class="">
</g><g id="svg_7" class="">
</g><g id="svg_8" class="">
</g><g id="svg_9" class="">
</g><g id="svg_10" class="">
</g><g id="svg_11" class="">
</g><g id="svg_12" class="">
</g><g id="svg_13" class="">
</g><g id="svg_14" class="">
</g><g id="svg_15" class="">
</g><g id="svg_16" class="">
</g><g id="svg_17" class="">
</g></g></svg>